<?xml version="1.0" standalone="no"?>
<!DOCTYPE svg PUBLIC "-//W3C//DTD SVG 20010904//EN"
 "http://www.w3.org/TR/2001/REC-SVG-20010904/DTD/svg10.dtd">
<svg version="1.0" xmlns="http://www.w3.org/2000/svg"
 width="270.000000pt" height="270.000000pt" viewBox="0 0 270.000000 270.000000"
 preserveAspectRatio="xMidYMid meet">
<metadata>
Created by potrace 1.11, written by Peter Selinger 2001-2013
</metadata>
<g transform="translate(0.000000,270.000000) scale(0.100000,-0.100000)"
fill="#000000" stroke="none">
<path d="M230 1355 l0 -1065 1084 0 c623 0 1087 4 1090 9 3 5 6 483 6 1062 l0
1054 -1090 3 -1090 2 0 -1065z m2120 0 l0 -995 -1028 0 c-566 0 -1031 2 -1033
4 -2 2 -3 450 -1 995 l2 991 1030 0 1030 0 0 -995z"/>
<path d="M1545 1860 c-3 -5 -23 -10 -44 -10 -21 0 -53 -3 -70 -6 l-31 -6 0
-443 c0 -376 2 -444 15 -455 10 -9 68 -11 217 -8 182 4 207 7 243 25 55 29 82
61 105 124 45 122 3 261 -94 311 l-29 15 29 17 c16 10 40 34 54 54 23 34 25
47 25 145 0 60 -4 111 -10 115 -6 4 -16 18 -23 32 -18 35 -92 80 -131 80 -17
0 -31 5 -31 10 0 6 -43 10 -109 10 -63 0 -112 -4 -116 -10z m212 -173 c10 -11
17 -131 9 -162 -4 -14 -13 -25 -21 -25 -8 0 -15 -4 -15 -10 0 -5 -25 -10 -55
-10 l-55 0 0 111 0 111 65 -4 c35 -2 68 -7 72 -11z m-10 -372 c28 -14 53 -64
53 -108 0 -30 -32 -97 -46 -97 -8 0 -14 -4 -14 -10 0 -6 -27 -10 -60 -10 l-60
0 0 120 0 120 48 0 c27 0 62 -7 79 -15z"/>
<path d="M833 1838 c-44 -69 -200 -840 -180 -892 5 -13 22 -16 101 -16 l95 0
5 43 c3 23 8 66 11 95 9 84 7 82 100 82 l83 0 5 -32 c3 -18 10 -63 15 -100 5
-36 13 -71 17 -77 4 -7 47 -11 112 -11 l105 0 -6 38 c-35 239 -96 552 -116
597 -5 11 -15 49 -23 85 -8 36 -23 94 -34 130 l-18 65 -132 3 c-98 2 -134 -1
-140 -10z m167 -321 c6 -45 18 -106 26 -136 7 -29 11 -58 8 -62 -7 -11 -131
-12 -138 -1 -6 11 10 99 55 300 l12 54 12 -36 c7 -20 18 -73 25 -119z"/>
</g>
</svg>
